<mxfile host="app.diagrams.net" modified="2020-09-07T10:58:56.660Z" agent="5.0 (Windows NT 10.0; WOW64) AppleWebKit/537.36 (KHTML, like Gecko) Chrome/84.0.4147.135 Safari/537.36" etag="uUYFgBoRJGQrh3peo99F" version="13.1.1" type="github">
  <diagram id="prtHgNgQTEPvFCAcTncT" name="Page-1">
    <mxGraphModel dx="1422" dy="762" grid="1" gridSize="10" guides="1" tooltips="1" connect="1" arrows="1" fold="1" page="1" pageScale="1" pageWidth="827" pageHeight="1169" math="0" shadow="0">
      <root>
        <mxCell id="0" />
        <mxCell id="1" parent="0" />
        <mxCell id="0irB0v9OyObZ27YI21y_-8" value="" style="edgeStyle=orthogonalEdgeStyle;rounded=0;orthogonalLoop=1;jettySize=auto;html=1;" edge="1" parent="1" source="0irB0v9OyObZ27YI21y_-2" target="0irB0v9OyObZ27YI21y_-5">
          <mxGeometry relative="1" as="geometry" />
        </mxCell>
        <mxCell id="0irB0v9OyObZ27YI21y_-2" value="开始" style="ellipse;whiteSpace=wrap;html=1;" vertex="1" parent="1">
          <mxGeometry x="320" y="110" width="80" height="30" as="geometry" />
        </mxCell>
        <mxCell id="0irB0v9OyObZ27YI21y_-3" value="结束" style="ellipse;whiteSpace=wrap;html=1;" vertex="1" parent="1">
          <mxGeometry x="320" y="980" width="80" height="30" as="geometry" />
        </mxCell>
        <mxCell id="0irB0v9OyObZ27YI21y_-5" value="输入参数创建任务" style="shape=parallelogram;perimeter=parallelogramPerimeter;whiteSpace=wrap;html=1;" vertex="1" parent="1">
          <mxGeometry x="300" y="170" width="120" height="60" as="geometry" />
        </mxCell>
        <mxCell id="0irB0v9OyObZ27YI21y_-10" value="Y" style="edgeStyle=orthogonalEdgeStyle;rounded=0;orthogonalLoop=1;jettySize=auto;html=1;exitX=0.5;exitY=1;exitDx=0;exitDy=0;" edge="1" parent="1" source="0irB0v9OyObZ27YI21y_-6" target="0irB0v9OyObZ27YI21y_-7">
          <mxGeometry relative="1" as="geometry">
            <mxPoint x="360" y="570" as="sourcePoint" />
          </mxGeometry>
        </mxCell>
        <mxCell id="0irB0v9OyObZ27YI21y_-13" value="N" style="edgeStyle=orthogonalEdgeStyle;rounded=0;orthogonalLoop=1;jettySize=auto;html=1;exitX=0;exitY=0.5;exitDx=0;exitDy=0;" edge="1" parent="1" source="0irB0v9OyObZ27YI21y_-6">
          <mxGeometry relative="1" as="geometry">
            <mxPoint x="295" y="540" as="sourcePoint" />
            <mxPoint x="300" y="795" as="targetPoint" />
            <Array as="points">
              <mxPoint x="170" y="460" />
              <mxPoint x="170" y="795" />
            </Array>
          </mxGeometry>
        </mxCell>
        <mxCell id="0irB0v9OyObZ27YI21y_-6" value="是否启用定时" style="rhombus;whiteSpace=wrap;html=1;" vertex="1" parent="1">
          <mxGeometry x="295" y="430" width="130" height="60" as="geometry" />
        </mxCell>
        <mxCell id="0irB0v9OyObZ27YI21y_-11" value="N" style="edgeStyle=orthogonalEdgeStyle;rounded=0;orthogonalLoop=1;jettySize=auto;html=1;" edge="1" parent="1" source="0irB0v9OyObZ27YI21y_-7">
          <mxGeometry relative="1" as="geometry">
            <mxPoint x="360" y="765" as="targetPoint" />
          </mxGeometry>
        </mxCell>
        <mxCell id="0irB0v9OyObZ27YI21y_-14" value="Y" style="edgeStyle=orthogonalEdgeStyle;rounded=0;orthogonalLoop=1;jettySize=auto;html=1;exitX=1;exitY=0.5;exitDx=0;exitDy=0;entryX=0.5;entryY=0;entryDx=0;entryDy=0;" edge="1" parent="1" source="0irB0v9OyObZ27YI21y_-7" target="0irB0v9OyObZ27YI21y_-17">
          <mxGeometry relative="1" as="geometry">
            <mxPoint x="530" y="830" as="targetPoint" />
            <Array as="points">
              <mxPoint x="550" y="630" />
            </Array>
          </mxGeometry>
        </mxCell>
        <mxCell id="0irB0v9OyObZ27YI21y_-7" value="是否平台定时" style="rhombus;whiteSpace=wrap;html=1;" vertex="1" parent="1">
          <mxGeometry x="295" y="600" width="130" height="60" as="geometry" />
        </mxCell>
        <mxCell id="0irB0v9OyObZ27YI21y_-16" style="edgeStyle=orthogonalEdgeStyle;rounded=0;orthogonalLoop=1;jettySize=auto;html=1;exitX=0.5;exitY=1;exitDx=0;exitDy=0;entryX=0.5;entryY=0;entryDx=0;entryDy=0;" edge="1" parent="1" source="0irB0v9OyObZ27YI21y_-12" target="0irB0v9OyObZ27YI21y_-3">
          <mxGeometry relative="1" as="geometry" />
        </mxCell>
        <mxCell id="0irB0v9OyObZ27YI21y_-12" value="入kafka 短信发送topic" style="rounded=0;whiteSpace=wrap;html=1;" vertex="1" parent="1">
          <mxGeometry x="300" y="765" width="120" height="60" as="geometry" />
        </mxCell>
        <mxCell id="0irB0v9OyObZ27YI21y_-26" style="edgeStyle=orthogonalEdgeStyle;rounded=0;orthogonalLoop=1;jettySize=auto;html=1;entryX=1;entryY=0.5;entryDx=0;entryDy=0;exitX=0.5;exitY=1;exitDx=0;exitDy=0;" edge="1" parent="1" source="0irB0v9OyObZ27YI21y_-17" target="0irB0v9OyObZ27YI21y_-3">
          <mxGeometry relative="1" as="geometry" />
        </mxCell>
        <mxCell id="0irB0v9OyObZ27YI21y_-17" value="redis" style="rounded=0;whiteSpace=wrap;html=1;" vertex="1" parent="1">
          <mxGeometry x="490" y="765" width="120" height="60" as="geometry" />
        </mxCell>
        <mxCell id="0irB0v9OyObZ27YI21y_-25" value="" style="edgeStyle=orthogonalEdgeStyle;rounded=0;orthogonalLoop=1;jettySize=auto;html=1;entryX=0.5;entryY=0;entryDx=0;entryDy=0;" edge="1" parent="1" source="0irB0v9OyObZ27YI21y_-20" target="0irB0v9OyObZ27YI21y_-6">
          <mxGeometry relative="1" as="geometry">
            <mxPoint x="360" y="420" as="targetPoint" />
          </mxGeometry>
        </mxCell>
        <mxCell id="0irB0v9OyObZ27YI21y_-20" value="入Mysql" style="rounded=0;whiteSpace=wrap;html=1;" vertex="1" parent="1">
          <mxGeometry x="300" y="280" width="120" height="60" as="geometry" />
        </mxCell>
        <mxCell id="0irB0v9OyObZ27YI21y_-22" value="" style="edgeStyle=orthogonalEdgeStyle;rounded=0;orthogonalLoop=1;jettySize=auto;html=1;" edge="1" parent="1" source="0irB0v9OyObZ27YI21y_-5" target="0irB0v9OyObZ27YI21y_-20">
          <mxGeometry relative="1" as="geometry">
            <mxPoint x="360" y="230" as="sourcePoint" />
            <mxPoint x="360" y="510" as="targetPoint" />
          </mxGeometry>
        </mxCell>
      </root>
    </mxGraphModel>
  </diagram>
</mxfile>
